HIERARCHY
ROOT Hips
{
	OFFSET -3.958830 18.904000 13.208200
	CHANNELS 6 Xposition Yposition Zposition Zrotation Yrotation Xrotation 
	JOINT LHipJoint
	{
		OFFSET 0.000000 0.000000 0.000000
		CHANNELS 3 Zrotation Yrotation Xrotation
		JOINT LeftUpLeg
		{
			OFFSET 1.800000 -1.400000 0.085000
			CHANNELS 3 Zrotation Yrotation Xrotation
			JOINT LeftLeg
			{
				OFFSET 2.215000 -6.000000 0.000000
				CHANNELS 3 Zrotation Yrotation Xrotation
				JOINT LeftFoot
				{
					OFFSET 2.500000 -6.900000 0.000000
					CHANNELS 3 Zrotation Yrotation Xrotation
					JOINT LeftToeBase
					{
						OFFSET 0.200000 -0.500000 1.950000
						CHANNELS 3 Zrotation Yrotation Xrotation
						End Site
						{
							OFFSET 0.000000 0.000000 0.000000
						}
					}
				}
			}
		}
	}
	JOINT RHipJoint
	{
		OFFSET 0.000000 0.000000 0.000000
		CHANNELS 3 Zrotation Yrotation Xrotation
		JOINT RightUpLeg
		{
			OFFSET -1.800000 -1.400000 0.085000
			CHANNELS 3 Zrotation Yrotation Xrotation
			JOINT RightLeg
			{
				OFFSET -2.215000 -6.000000 0.000000
				CHANNELS 3 Zrotation Yrotation Xrotation
				JOINT RightFoot
				{
					OFFSET -2.500000 -6.900000 0.000000
					CHANNELS 3 Zrotation Yrotation Xrotation
					JOINT RightToeBase
					{
						OFFSET -0.200000 -0.500000 1.950000
						CHANNELS 3 Zrotation Yrotation Xrotation
						End Site
						{
							OFFSET 0.000000 0.000000 0.000000
						}
					}
				}
			}
		}
	}
	JOINT LowerBack
	{
		OFFSET 0.000000 0.000000 0.000000
		CHANNELS 3 Zrotation Yrotation Xrotation
		JOINT Spine
		{
			OFFSET -0.087000 1.940000 -0.288900
			CHANNELS 3 Zrotation Yrotation Xrotation
			JOINT Spine1
			{
				OFFSET 0.000000 1.950000 0.060000
				CHANNELS 3 Zrotation Yrotation Xrotation
				JOINT Neck
				{
					OFFSET 0.000000 0.000000 0.000000
					CHANNELS 3 Zrotation Yrotation Xrotation
					JOINT Neck1
					{
						OFFSET 0.000000 1.600000 0.340000
						CHANNELS 3 Zrotation Yrotation Xrotation
						JOINT Head
						{
							OFFSET 0.000000 1.667000 -0.240000
							CHANNELS 3 Zrotation Yrotation Xrotation
							End Site
							{
								OFFSET 0.000000 0.000000 0.000000
							}
						}
					}
				}
				JOINT LeftShoulder
				{
					OFFSET 0.000000 0.000000 0.000000
					CHANNELS 3 Zrotation Yrotation Xrotation
					JOINT LeftArm
					{
						OFFSET 2.700000 1.550000 -0.730000
						CHANNELS 3 Zrotation Yrotation Xrotation
						JOINT LeftForeArm
						{
							OFFSET 5.450000 0.000000 0.000000
							CHANNELS 3 Zrotation Yrotation Xrotation
							JOINT LeftHand
							{
								OFFSET 3.450000 0.000000 0.000000
								CHANNELS 3 Zrotation Yrotation Xrotation
								JOINT LeftHandIndex1
								{
									OFFSET 0.750000 0.000000 0.000000
									CHANNELS 3 Zrotation Yrotation Xrotation
									End Site
									{
										OFFSET 0.000000 0.000000 0.000000
									}
								}
							}
						}
					}
				}
				JOINT RightShoulder
				{
					OFFSET 0.000000 0.000000 0.000000
					CHANNELS 3 Zrotation Yrotation Xrotation
					JOINT RightArm
					{
						OFFSET -2.700000 1.550000 -0.730000
						CHANNELS 3 Zrotation Yrotation Xrotation
						JOINT RightForeArm
						{
							OFFSET -5.450000 0.000000 0.000000
							CHANNELS 3 Zrotation Yrotation Xrotation
							JOINT RightHand
							{
								OFFSET -3.450000 0.000000 0.000000
								CHANNELS 3 Zrotation Yrotation Xrotation
								JOINT RightHandIndex1
								{
									OFFSET -0.750000 0.000000 0.000000
									CHANNELS 3 Zrotation Yrotation Xrotation
									End Site
									{
										OFFSET 0.000000 0.000000 0.000000
									}
								}
							}
						}
					}
				}
			}
		}
	}
}
MOTION
Frames: 7
Frame Time: 0.016667
-3.125120 16.870710 -0.142410 -7.648603 -4.658862 -21.967589 -15.770669 14.836776 2.421730 31.103471 2.319340 0.404946 1.389489 9.168494 26.248198 0.045535 7.672265 2.036125 0.601910 -0.084230 0.677510 17.593653 -10.361543 2.212070 -8.216178 2.099703 -0.061735 10.381818 -10.753676 33.373694 -0.969408 -6.518341 2.375178 -0.080920 0.177580 0.357520 -1.668321 -4.532078 -7.208530 -23.813726 4.099317 22.447492 -4.028134 6.911766 20.962141 5.560593 -2.214917 -17.881695 -8.206584 9.420074 52.858678 1.381820 5.314300 -3.123020 3.090667 -16.538842 8.864218 -3.956563 -0.468146 -5.341160 28.370722 -14.495105 -5.055528 -3.799171 2.929002 0.866910 0.066820 0.062840 0.217370 -13.446300 23.540112 11.510162 -9.332548 -13.158327 -11.194373 -30.753353 68.170030 -17.064824 1.484208 -2.034571 -0.210580 0.116000 -0.135910 -0.389290 
-3.169940 16.901130 -0.150020 -7.531935 -5.466439 -22.068923 -15.704248 14.883168 2.357158 30.203688 2.192572 0.836034 2.103967 8.688046 26.230916 0.007189 7.494400 2.096178 0.652540 0.007120 0.683250 17.625908 -10.496310 2.277302 -7.528855 1.980551 -0.220188 9.579475 -10.397132 33.386864 -0.990875 -6.398359 2.415129 -0.028120 0.162370 0.338370 -1.775649 -4.439536 -7.181534 -21.107863 1.660372 23.012965 -7.583520 6.345330 22.278926 6.123629 -3.520469 -18.523853 -11.027372 10.625248 51.863317 2.199260 5.003650 -5.524000 4.474404 -14.711704 8.533259 -5.195001 0.494803 -5.493714 29.265058 -12.476731 -4.936020 -3.813760 2.925091 0.891670 0.033420 0.101180 0.241310 -15.770724 22.902108 12.166206 -14.845796 -8.787316 -8.135287 -21.943665 42.207908 -5.273782 1.785660 -2.249659 -0.206390 0.163850 -0.155820 -0.375570 
-3.216420 16.932730 -0.141820 -7.753404 -6.208256 -21.262411 -15.575368 14.810317 2.304541 29.569074 2.011409 0.575250 2.830260 8.215124 25.991862 -0.032644 7.228122 2.194102 0.712280 0.093460 0.746650 17.709062 -10.717332 2.413687 -6.334766 2.178189 -1.523200 8.905869 -10.195518 34.235279 -1.054513 -6.273743 2.476050 -0.007380 0.126570 0.302560 -2.033927 -3.991185 -7.245752 -17.067957 -0.448150 23.172144 -11.156399 5.735321 22.318313 6.507234 -3.929631 -19.507067 -12.691573 10.745077 53.672719 2.867260 4.351000 -8.677340 4.740448 -13.653939 8.206737 -5.117541 1.330063 -5.396291 28.630163 -13.227479 -4.887202 -3.737236 2.831251 0.958150 -0.030670 0.181070 0.263790 -16.562314 22.368323 12.988182 -18.100875 -4.264531 -5.733184 -20.512122 20.746754 -2.058059 2.160469 -1.879873 -0.200210 0.251440 -0.198860 -0.372380 
-3.263620 16.940390 -0.130490 -7.873871 -5.783499 -20.753614 -15.503448 14.760034 2.288697 29.346620 1.694593 0.153558 3.214223 7.897659 25.820173 -0.019202 7.060509 2.260127 0.711910 0.138810 0.699610 17.754866 -10.797417 2.503920 -6.041116 2.049861 -2.153414 9.732871 -10.621160 34.257233 -1.082761 -6.317060 2.491762 0.001760 0.151020 0.281430 -2.196163 -3.821396 -7.322866 -14.400268 -1.787244 23.765438 -12.638471 4.854651 22.370460 6.708386 -3.995190 -19.836701 -13.030610 10.353556 53.384677 4.095110 3.354960 -8.966460 5.459070 -13.281238 8.240802 -6.025424 1.185753 -5.458851 29.078381 -13.019112 -4.930765 -3.725983 2.838144 0.932650 -0.033010 0.190580 0.301980 -17.608574 21.800095 13.276600 -19.028126 -3.231958 -5.457950 -21.433106 11.120421 -1.510519 2.456116 -1.642917 -0.184790 0.287590 -0.214330 -0.328090 
-3.320260 16.928670 -0.108860 -8.200872 -5.590174 -19.641608 -15.435471 14.587284 2.354407 29.991868 1.506454 -0.286237 2.413193 8.066734 24.846441 -0.002958 7.064217 2.293834 0.676450 0.118550 0.598120 17.837153 -10.853845 2.492945 -5.202211 1.924551 -3.135438 8.665073 -10.240795 34.543193 -1.009556 -6.271482 2.540572 0.005820 0.261110 0.281000 -2.413056 -3.535606 -7.382677 -11.051658 -3.126524 23.012517 -14.428327 3.838014 22.281986 6.682148 -4.305855 -18.836893 -12.980045 10.107417 50.711542 5.263490 2.257170 -6.601270 6.425981 -12.433005 8.116312 -7.339308 0.616057 -5.351071 30.163082 -12.891765 -5.142805 -3.773327 2.893465 0.839590 0.038840 0.102800 0.347570 -18.574695 20.455387 12.281396 -18.441373 -1.129616 -5.924324 -23.995425 10.649323 -2.101770 2.497533 -1.736623 -0.189820 0.298630 -0.195860 -0.273250 
-3.393340 16.932860 -0.097960 -8.037705 -5.595356 -19.488246 -15.483084 14.562345 2.392811 30.463260 1.526392 0.450031 2.192676 8.043920 23.241653 0.083039 7.021672 2.352868 0.664330 0.140570 0.538570 17.823072 -10.748342 2.451025 -4.554921 1.851551 -3.070908 8.058051 -9.952715 34.624308 -0.960340 -6.275009 2.562280 0.017080 0.317090 0.285050 -2.334165 -3.685526 -7.358048 -10.228567 -3.517948 22.391517 -14.199778 3.410660 23.392639 6.786305 -4.489700 -18.068492 -12.752639 9.702061 48.667742 4.780280 1.617660 -4.314690 7.668382 -11.631486 8.113237 -8.853538 -0.275362 -5.103978 30.549576 -10.949438 -4.818394 -3.828370 2.973265 0.714490 0.094510 0.045550 0.384480 -20.032382 19.702042 11.686221 -17.245361 0.333629 -6.503205 -26.722933 12.777507 -3.112125 2.509289 -1.928493 -0.153460 0.274330 -0.214120 -0.212410 
-3.461870 16.931840 -0.081550 -7.468438 -5.373134 -19.216692 -15.506583 14.500060 2.451112 30.536725 1.488701 1.401737 1.518614 8.054792 21.375209 0.086210 6.986083 2.390785 0.690770 0.166530 0.569830 17.817934 -10.719317 2.389374 -4.597050 1.800098 -3.213829 7.555206 -9.784839 34.777069 -0.950269 -6.252934 2.576876 0.028040 0.324280 0.300330 -2.303919 -3.644033 -7.334933 -9.983072 -3.538343 21.746624 -13.714800 3.137104 23.750755 6.669043 -4.061288 -17.130122 -11.403977 8.599540 48.426989 3.828210 1.216760 -5.250240 7.549180 -11.464488 7.948746 -7.819287 -0.593142 -4.641893 29.546445 -10.801461 -4.550763 -3.841589 2.946641 0.694730 0.110420 0.043490 0.386340 -19.734501 19.038602 10.952965 -17.144944 2.316059 -6.381721 -27.678415 14.202558 -3.619990 2.422294 -1.924573 -0.136100 0.282860 -0.223940 -0.207620 
